<?xml version="1.0" standalone="no"?>
<!DOCTYPE svg PUBLIC "-//W3C//DTD SVG 20010904//EN"
 "http://www.w3.org/TR/2001/REC-SVG-20010904/DTD/svg10.dtd">
<svg version="1.0" xmlns="http://www.w3.org/2000/svg"
 width="400.000000pt" height="400.000000pt" viewBox="0 0 400.000000 400.000000"
 preserveAspectRatio="xMidYMid meet">

<g transform="translate(0.000000,400.000000) scale(0.100000,-0.100000)"
fill="#000000" stroke="none">
<path d="M938 3971 c-89 -51 -100 -68 -183 -290 -20 -54 -41 -87 -73 -119
l-44 -45 21 -61 21 -61 -65 -62 -65 -63 46 -127 c65 -182 63 -166 20 -161 -20
2 -36 2 -36 0 0 -2 11 -18 25 -37 24 -31 136 -350 151 -431 5 -29 4 -33 -10
-28 -35 14 -67 -6 -88 -54 -18 -39 -21 -68 -22 -187 -1 -131 1 -144 25 -195
14 -30 58 -98 98 -150 40 -52 86 -121 104 -154 42 -80 79 -114 124 -118 36 -3
37 -4 64 -86 55 -165 161 -329 305 -473 l76 -77 -35 -11 c-49 -16 -101 -77
-122 -142 -47 -144 -111 -247 -181 -290 -37 -22 -64 -65 -64 -99 0 -11 -1 -20
-3 -20 -36 0 -532 -86 -582 -101 -163 -49 -304 -144 -383 -259 l-44 -65 973
-3 c535 -1 974 0 977 3 9 8 -20 200 -44 293 -43 167 -75 206 -241 304 -59 34
-122 75 -140 91 l-33 29 0 104 0 104 70 -46 c97 -62 192 -101 295 -119 109
-19 141 -19 250 0 102 18 198 57 295 119 l69 45 3 -102 4 -102 -34 -32 c-19
-18 -80 -59 -136 -92 -157 -93 -206 -148 -250 -281 -21 -64 -56 -253 -56 -304
0 -15 82 -16 971 -16 l970 0 -22 33 c-78 111 -175 193 -290 246 -89 42 -270
93 -499 140 -111 24 -197 47 -199 53 -2 7 -46 56 -97 110 -104 109 -124 141
-152 252 -25 96 -42 122 -93 143 l-41 16 76 76 c144 144 250 308 305 473 24
71 31 83 52 86 57 7 74 23 133 123 33 55 74 117 92 137 51 60 113 162 125 206
17 62 7 303 -14 343 -19 35 -44 53 -76 53 -26 0 -26 -4 0 111 29 134 37 370
15 467 -22 96 -49 166 -91 236 -32 54 -35 64 -35 141 0 217 -71 344 -265 471
-141 92 -46 84 -1029 83 l-871 -1 -47 -27z m867 -460 c44 -11 150 -47 235 -81
239 -94 352 -119 610 -135 58 -4 122 -11 143 -16 49 -13 101 -60 121 -110 42
-103 50 -186 66 -664 8 -248 18 -325 50 -409 l11 -29 24 23 c23 22 23 18 -21
-151 -121 -464 -199 -629 -393 -832 -206 -216 -428 -328 -651 -328 -223 0
-445 112 -651 328 -189 198 -259 343 -378 776 -46 168 -59 233 -41 204 10 -16
15 -11 42 45 74 157 73 151 70 481 -2 170 2 348 8 415 14 149 37 294 48 301
146 104 237 150 352 180 101 27 249 27 355 2z m-1043 -1053 c9 -7 29 -60 46
-118 l31 -105 -27 -45 c-66 -108 -69 -147 -15 -196 44 -41 56 -43 43 -8 -19
48 -12 110 15 141 l24 28 1 -50 c0 -31 3 -45 9 -37 5 9 15 -15 29 -71 12 -46
24 -91 28 -100 4 -12 -1 -20 -17 -27 l-24 -10 24 3 c22 2 26 -5 52 -98 31
-108 28 -125 -19 -106 -20 8 -44 37 -77 94 -27 45 -77 119 -112 164 -35 45
-75 108 -90 140 -25 52 -27 69 -27 168 2 196 41 284 106 233z m2528 2 c32 -17
44 -77 44 -225 l1 -140 -33 -61 c-19 -34 -55 -87 -81 -118 -26 -31 -72 -97
-101 -147 -29 -49 -62 -96 -74 -104 -20 -15 -56 -20 -56 -9 0 20 64 223 77
243 9 14 10 20 3 16 -8 -5 -10 -2 -7 11 9 30 35 125 47 172 11 42 12 43 30 27
23 -21 32 -70 20 -120 -5 -22 -7 -41 -6 -43 7 -7 68 53 76 74 12 30 -7 94 -44
153 l-28 43 31 95 c17 53 31 101 31 109 0 12 26 33 43 34 5 0 17 -4 27 -10z"/>
<path d="M1390 2642 c-82 -23 -181 -70 -245 -117 -27 -20 -43 -35 -35 -32 221
78 339 97 473 74 48 -9 119 -28 157 -43 57 -22 72 -25 85 -14 38 32 -4 87 -94
121 -79 31 -250 36 -341 11z"/>
<path d="M2312 2645 c-120 -34 -184 -96 -137 -135 13 -11 28 -8 85 14 38 15
109 34 157 43 113 19 237 6 378 -41 55 -19 101 -33 102 -32 9 8 -149 97 -222
125 -79 30 -104 35 -200 38 -76 2 -126 -2 -163 -12z"/>
<path d="M1493 2493 c9 -2 23 -2 30 0 6 3 -1 5 -18 5 -16 0 -22 -2 -12 -5z"/>
<path d="M2473 2493 c9 -2 25 -2 35 0 9 3 1 5 -18 5 -19 0 -27 -2 -17 -5z"/>
<path d="M1384 2457 c-58 -19 -153 -72 -198 -111 l-39 -33 57 -59 57 -59 -27
44 c-31 53 -28 62 39 108 160 108 347 95 434 -31 23 -34 32 -55 27 -70 -5 -18
-3 -18 12 4 10 14 22 28 27 31 24 17 -74 129 -143 165 -45 23 -189 29 -246 11z"/>
<path d="M2399 2461 c-64 -21 -146 -89 -176 -144 -13 -25 -13 -30 0 -40 8 -7
19 -21 25 -32 10 -18 11 -17 12 11 0 42 44 97 105 131 45 25 60 28 140 28 85
0 94 -2 161 -38 40 -21 82 -49 95 -63 l23 -25 -28 -52 -28 -52 34 36 c18 20
44 49 57 65 l23 28 -38 33 c-22 19 -76 52 -122 75 -76 38 -91 42 -170 45 -48
1 -99 -1 -113 -6z"/>
<path d="M1428 2392 c-65 -40 -74 -131 -18 -187 26 -25 38 -30 80 -30 42 0 54
5 80 30 100 100 -23 261 -142 187z m137 -27 c26 -25 33 -55 14 -55 -32 0 -77
49 -64 70 10 16 24 12 50 -15z m-127 -149 c3 -12 -1 -17 -10 -14 -7 3 -15 13
-16 22 -3 12 1 17 10 14 7 -3 15 -13 16 -22z"/>
<path d="M2448 2392 c-65 -40 -74 -131 -18 -187 26 -25 38 -30 80 -30 42 0 54
5 80 30 100 100 -23 261 -142 187z m137 -27 c26 -25 33 -55 14 -55 -32 0 -77
49 -64 70 10 16 24 12 50 -15z m-127 -149 c3 -12 -1 -17 -10 -14 -7 3 -15 13
-16 22 -3 12 1 17 10 14 7 -3 15 -13 16 -22z"/>
<path d="M1485 2160 l-90 -6 90 -1 c50 0 104 3 120 7 l30 8 -30 -1 c-16 0 -70
-4 -120 -7z"/>
<path d="M2385 2160 c30 -8 212 -13 204 -6 -2 2 -56 5 -119 8 -63 3 -101 2
-85 -2z"/>
<path d="M1801 1698 c-1 -15 9 -37 22 -50 12 -13 16 -16 8 -6 -7 9 -17 32 -21
50 -7 31 -8 31 -9 6z"/>
<path d="M2181 1671 c0 -14 -9 -34 -18 -45 -17 -20 -17 -20 6 0 15 14 21 29
18 45 l-4 24 -2 -24z"/>
<path d="M1885 1630 c-4 -6 7 -10 27 -9 27 0 30 2 13 9 -27 12 -33 12 -40 0z"/>
<path d="M2075 1630 c-17 -7 -15 -9 13 -9 17 -1 32 4 32 9 0 12 -17 12 -45 0z"/>
<path d="M691 2387 c-6 -6 -11 -41 -10 -81 1 -53 3 -63 9 -41 4 17 14 47 24
69 9 21 16 42 16 46 0 14 -27 19 -39 7z"/>
<path d="M740 2376 c0 -2 8 -10 18 -17 15 -13 16 -12 3 4 -13 16 -21 21 -21
13z"/>
<path d="M881 1994 c0 -11 3 -14 6 -6 3 7 2 16 -1 19 -3 4 -6 -2 -5 -13z"/>
<path d="M830 1866 c0 -2 8 -10 18 -17 15 -13 16 -12 3 4 -13 16 -21 21 -21
13z"/>
<path d="M3264 2385 c-10 -8 -14 -15 -8 -15 16 0 45 -74 55 -140 6 -46 7 -37
6 50 -2 119 -11 137 -53 105z"/>
<path d="M3112 2030 c0 -14 2 -19 5 -12 2 6 2 18 0 25 -3 6 -5 1 -5 -13z"/>
</g>
</svg>
